<svg xmlns="http://www.w3.org/2000/svg" version="1.1" xmlns:xlink="http://www.w3.org/1999/xlink" xmlns:svgjs="http://svgjs.dev/svgjs" width="1000" height="1125" viewBox="0 0 1000 1125"><g transform="matrix(1,0,0,1,0,0)"><svg viewBox="0 0 320 360" data-background-color="#000000" preserveAspectRatio="xMidYMid meet" height="1125" width="1000" xmlns="http://www.w3.org/2000/svg" xmlns:xlink="http://www.w3.org/1999/xlink"><g id="tight-bounds" transform="matrix(1,0,0,1,0,0)"><svg viewBox="0 0 320 360" height="360" width="320"><g><svg></svg></g><g><svg viewBox="0 0 320 360" height="360" width="320"><g><path xmlns="http://www.w3.org/2000/svg" d="M219.58 41.008c0.707 0 6.365 2.829 9.547 3.89-1.061 0.354-3.536-0.707-6.365-1.768 0.707 0 2.122 0.354 3.536 1.06-0.707-0.707-6.011-2.475-6.718-3.182M166.895 30.047c1.061-0.354 13.436 1.414 19.094 1.768 0.354-0.354-0.707-0.354-2.122-0.707 1.768-0.354 5.304 0.707 7.779 1.06-7.425 0.354-15.558-1.768-22.629-1.06-2.475 0-0.707-0.707-2.122-1.061M156.641 30.047c6.365 0 11.315 0 2.121 0.707-1.061-0.354-2.475-0.354-2.121-0.707M256.707 59.395c0.707 0 3.536 3.182 4.95 4.243-0.354 0.354-3.182-2.475-4.596-3.536 0.354 0.354 0 0-0.354-0.707M249.635 54.798c-2.829-2.475-3.889-2.475-4.243-3.889 2.475 1.414 4.243 2.829 4.243 3.889M204.022 32.522c0.354-0.354 1.061 0.354 2.829 0.707-2.122-0.354-1.768 0-1.061 0.707-2.475-0.354-3.182-0.707-2.475-1.414 1.414 0.707 1.768 0.354 0.707 0M103.602 36.765c0-0.354 1.414-1.061 2.475-1.414-1.061 0.707-0.707 1.061 1.061 0.353 0 0.354-2.122 1.061-3.536 1.768 0.707-0.354 1.414-1.414 0-0.707M211.094 28.986c-1.061 0.354-4.95-1.768-8.84-2.475-2.122-0.707 8.486 1.768 8.84 2.475M2.475 203.66c2.122 8.84 0.707 8.486 0 0M2.829 150.621c0.354-1.414 0.707-5.304 1.06-4.95-1.061 8.486-2.829 12.376-3.182 18.74 1.061-5.657-0.354 3.182-0.707 5.304 0.354 2.829 0.354-1.768 1.061-1.06 0.707 1.061-1.414 15.912-0.707 7.779-0.707 7.425 0 15.558 1.414 17.679-1.768 11.315 7.072 36.773 8.84 42.077 0.354 0.354 0-1.768 0.707-0.353 0.707 4.597 3.889 7.779 4.95 12.729 1.061 1.414 5.304 9.193 6.011 10.962 1.414 2.829 2.122 2.475 3.536 5.303 4.243 8.133 10.961 15.912 17.326 23.337 20.508 24.044 51.978 43.845 86.984 50.918 35.006 7.425 71.779 2.122 100.419-11.669 1.768-1.061 1.414-1.414 3.536-2.122 9.901-3.182 21.923-13.436 28.641-17.326 3.182-3.536 11.669-9.547 12.73-13.082 6.011-4.95 12.022-13.083 15.204-18.387 1.768-2.829 3.182-2.829 3.889-4.597-0.354 0 5.657-7.425 7.426-11.668-0.707 0-1.768 2.122-1.768 0 12.729-24.398 19.801-57.282 15.911-79.912 0.707 27.934-6.365 59.05-19.801 78.851-6.011 12.729-18.387 26.519-29.701 36.42-1.768 1.768-3.536 3.889-5.658 5.304-6.718 5.657-14.144 10.254-21.922 14.497-18.387 10.254-38.895 19.094-62.94 19.447 41.37-3.536 78.497-24.398 99.006-49.856-15.558 15.204-22.276 21.215-39.602 30.055-1.414 2.475-13.083 7.425-20.862 9.547 4.597-2.122 14.144-5.657 17.326-8.486-25.812 12.376-54.453 19.448-81.326 15.558 10.254 0 24.751 0.354 38.541-2.121 2.122-0.707 3.182-1.414 5.658-1.768 26.873-6.011 52.685-19.094 71.072-37.481-10.608 9.547-26.519 20.862-36.774 24.398 9.547-5.304 26.873-15.558 32.53-23.337-11.315 11.315-32.53 22.63-45.966 27.58-2.122 0.354 1.414-1.414-2.122 0-4.243 1.061-2.475 1.061-3.536 1.768-16.265 4.597-35.006 8.486-50.563 7.072-2.829-0.354-3.889-1.061-6.365-1.061-2.829-0.354-5.304-0.354-8.486-0.354-12.376-1.414-25.812-6.365-35.713-10.607-5.304-2.475-10.608-4.243-15.912-7.426-4.243-2.475-7.779-5.304-11.314-8.132-13.436-9.901-24.751-19.801-35.36-33.945-19.094-26.519-28.994-59.757-27.58-92.641 1.414-32.884 14.497-65.061 35.359-88.752-1.061 1.061 1.414-2.475 3.536-4.596 0 0.707-0.354 1.768 2.122-0.707 2.122-2.475-0.707-0.707 0.353-2.122 21.923-24.044 60.111-43.492 99.36-44.199 1.414-1.061 3.889-2.475 6.718-1.768 0 0.354-1.768 0.354-1.768 0.354 3.889-0.354 7.425-0.354 9.193 0.353 0.354-0.354-1.414-0.707 0-0.707 2.475 0.707 3.182 0 4.597 0.707-1.061 0-2.122 0-2.829 0.354 8.84 0 14.497 2.122 23.337 2.829-4.597-1.061-5.657-1.061-9.193-2.122 3.889 0.707 5.657 1.414 7.425 1.061-0.707 0-0.354-1.061 0.354-0.707 7.072 1.768 7.779 2.475 15.204 4.95 0.707-0.707-3.182-1.061-4.243-2.122 7.072 2.475 13.436 4.243 17.68 7.072-1.414-1.061-5.657-2.475-8.84-3.889-0.354 0.354 1.061 0.707 1.414 1.414-3.536-1.768-8.486-3.536-13.436-4.243 4.243 1.061 7.072 2.475 8.84 3.182-3.889-0.707-8.84-3.182-14.498-4.243 9.193 2.829 26.519 9.193 37.127 14.851-3.889-2.475-8.486-4.243-10.961-5.657 2.122 0.354 4.597 1.768 4.597 1.06 2.475 1.061 5.657 3.536 7.425 3.89-3.182-2.122-9.547-5.304-11.668-6.365 26.519 12.022 50.21 32.177 65.414 57.989 1.414 2.475 3.536 8.133 5.304 8.84-0.354-1.768-1.768-2.829-3.182-5.657 0.707 0 0.707-1.061 0-2.122-1.414-1.768 0 1.414-1.415-0.354-6.365-11.669-14.144-21.923-26.165-33.237 6.718 6.365 1.768 1.768 0.353-0.354 9.193 8.133 19.801 21.923 24.398 28.995-0.707-1.061-1.061-1.768-0.707-1.768 8.486 14.497 13.79 27.58 19.094 46.32 0.354 0.354 0-1.414 0.707-0.353 3.536 14.851 4.597 27.227 4.243 38.541 2.829-19.094-3.536-48.796-14.851-72.133-1.414-2.829-1.414-0.707-2.829-3.889 0-1.061-1.061-3.182-1.768-4.597-14.144-23.337-31.47-39.956-51.978-53.038 1.414 0.707 4.243 2.829 4.244 2.475-38.188-25.105-82.387-28.641-118.807-20.862-2.475 1.061-3.536 2.122-6.365 3.536 5.304-1.768 8.486-2.122 13.437-3.183 1.061-1.061-4.597 0.354-2.122-0.707 0.354 0.354 4.95-0.707 6.011-0.353 0 0.354-1.414 0.707-1.768 1.06 11.669-2.475 23.691-2.829 33.945-2.121-6.011 0.354-16.972-0.707-20.508 1.061 3.536-0.354 8.486-0.707 11.668-0.354-4.243 0-12.022 0.354-15.558 0.707-0.354-0.354 5.657-1.061 1.768-1.06-1.768 0.354-4.597 0.354-5.657 1.414-30.409 2.829-60.111 18.74-80.973 37.481-4.243 3.536-9.193 7.425-12.375 11.314-7.779 8.84-12.729 17.68-18.387 25.459 3.536-7.425 11.315-18.74 20.508-28.287 9.193-9.547 19.094-17.68 24.398-21.923 0 1.414 8.486-5.304 11.669-7.425-2.122 1.768 1.414-0.707 2.121-0.354 11.315-6.718 20.508-9.193 30.763-13.083-2.475 0.707-4.597 1.414-4.951 1.061 2.475-0.707 3.889-1.414 3.536-1.768-9.901 2.829-25.459 9.547-37.834 16.972 22.276-15.204 50.564-24.398 78.497-24.751 27.934-0.707 55.16 6.365 76.729 17.68 14.497 6.365 28.287 18.033 39.249 29.348 3.182 2.829 0.707-0.707 5.304 4.243-1.414-0.707-2.475-1.414-0.707 0.707 2.829 3.182-0.707-2.475 3.889 3.182-0.354 0-1.768-1.768-1.768-1.061 12.376 10.961 21.923 30.762 27.58 43.846-1.414-5.304-4.95-12.729-7.779-18.033 8.486 15.558 11.315 24.751 14.851 38.541 1.414 1.061-0.707-4.95 0.707-2.121 0.354 2.122 0.707 8.84 2.122 9.9-1.061-6.718-2.829-14.851-4.243-16.265 1.061 0.707-1.768-8.133-3.536-10.254-0.707-5.657-5.657-15.558-9.901-22.984-15.204-29.702-42.431-54.099-72.839-67.536 0-0.707-1.768-1.414-2.476-2.121-30.055-12.729-66.122-16.265-100.773-8.133-35.006 8.486-67.889 28.641-91.227 57.636 1.061-3.536 9.901-10.254 10.255-13.083-10.254 10.961-21.215 25.459-28.641 41.016-7.779 15.558-12.022 31.47-13.79 43.138" fill="#89939e" fill-rule="nonzero" stroke="none" stroke-width="1" stroke-linecap="butt" stroke-linejoin="miter" stroke-miterlimit="10" stroke-dasharray="" stroke-dashoffset="0" font-family="none" font-weight="none" font-size="none" text-anchor="none" style="mix-blend-mode: normal" data-fill-palette-color="tertiary"></path></g><g transform="matrix(1,0,0,1,104.11170055031532,90)"><svg viewBox="0 0 111.77659889936936 180" height="180" width="111.77659889936936"><g><svg viewBox="0 0 111.77659889936936 180" height="180" width="111.77659889936936"><g><svg viewBox="0 0 182.91891891891893 294.5643876232771" height="180" width="111.77659889936936"><g transform="matrix(1,0,0,1,0,114.56438762327713)"><svg viewBox="0 0 182.91891891891893 180" height="180" width="182.91891891891893"><g><svg viewBox="0 0 182.91891891891893 180" height="180" width="182.91891891891893"><g><svg viewBox="0 0 182.91891891891893 180" height="180" width="182.91891891891893"><g transform="matrix(1,0,0,1,0,0)"><svg width="182.91891891891893" viewBox="4.650000095367432 -37 37.599998474121094 37" height="180" data-palette-color="#89939e"><path d="M4.65 0L4.65-34.9 16.35-34.9Q19.6-34.9 22.25-33.8 24.9-32.7 26.78-30.53 28.65-28.35 29.65-25.08 30.65-21.8 30.65-17.45L30.65-17.45Q30.65-13.1 29.65-9.83 28.65-6.55 26.78-4.38 24.9-2.2 22.25-1.1 19.6 0 16.35 0L16.35 0 4.65 0ZM8.85-3.7L16.35-3.7Q18.5-3.7 20.3-4.42 22.1-5.15 23.4-6.55 24.7-7.95 25.43-9.98 26.15-12 26.15-14.6L26.15-14.6 26.15-20.3Q26.15-22.9 25.43-24.93 24.7-26.95 23.4-28.35 22.1-29.75 20.3-30.48 18.5-31.2 16.35-31.2L16.35-31.2 8.85-31.2 8.85-3.7ZM39.8-31.85L39.8-31.85Q38.5-31.85 37.92-32.48 37.35-33.1 37.35-34.1L37.35-34.1 37.35-34.75Q37.35-35.75 37.92-36.38 38.5-37 39.8-37L39.8-37Q41.1-37 41.67-36.38 42.25-35.75 42.25-34.75L42.25-34.75 42.25-34.1Q42.25-33.1 41.67-32.48 41.1-31.85 39.8-31.85ZM37.8 0L37.8-25.8 41.8-25.8 41.8 0 37.8 0Z" opacity="1" transform="matrix(1,0,0,1,0,0)" fill="#89939e" class="undefined-text-0" data-fill-palette-color="primary" id="text-0"></path></svg></g></svg></g></svg></g></svg></g><g transform="matrix(1,0,0,1,34.937513513513515,0)"><svg viewBox="0 0 113.0438918918919 88.29806762327713" height="88.29806762327713" width="113.0438918918919"><g><svg xmlns="http://www.w3.org/2000/svg" xmlns:xlink="http://www.w3.org/1999/xlink" version="1.1" x="0" y="0" viewBox="204.99998474121094 214.85198974609375 89.99800109863281 70.29702758789062" enable-background="new 200 200 100 100" xml:space="preserve" height="88.29806762327713" width="113.0438918918919" class="icon-icon-0" data-fill-palette-color="accent" id="icon-0"><g fill="#dedede" data-fill-palette-color="accent"><path fill="none" d="M250 232.601c3.338 0 6.096-3.626 6.528-8.329-0.293 0.074-0.653 0.216-1.047 0.49 0 0 0.746-4.425-0.827-5.046 0 0-2.172 1.054-4.654 1.122-2.482-0.068-4.654-1.122-4.654-1.122-1.574 0.621-0.829 5.046-0.829 5.046-0.393-0.274-0.753-0.417-1.047-0.49C243.904 228.975 246.661 232.601 250 232.601z"></path><path fill="none" d="M279.876 269.587c3.339 0 6.096-3.625 6.529-8.328-0.294 0.073-0.654 0.216-1.048 0.489 0 0 0.746-4.425-0.827-5.046 0 0-2.172 1.056-4.654 1.123-2.482-0.067-4.654-1.123-4.654-1.123-1.573 0.621-0.827 5.047-0.827 5.047-0.394-0.274-0.754-0.417-1.047-0.49C273.78 265.962 276.537 269.587 279.876 269.587z"></path><path fill="none" d="M219.938 269.587c3.338 0 6.096-3.625 6.529-8.328-0.294 0.073-0.655 0.217-1.048 0.489 0 0 0.746-4.425-0.828-5.045 0 0-2.172 1.055-4.654 1.122-2.482-0.067-4.653-1.122-4.653-1.122-1.574 0.62-0.829 5.047-0.829 5.047-0.393-0.274-0.754-0.418-1.046-0.491C213.843 265.962 216.599 269.587 219.938 269.587z"></path><path d="M225.924 269.898c-0.04 1.798-2.704 3.248-5.986 3.248-3.282 0-5.946-1.45-5.985-3.248-5.021 0.459-8.953 4.68-8.953 9.818 0 5.446 4.415 5.433 9.86 5.433h10.155c5.446 0 9.86 0.014 9.86-5.433C234.875 274.577 230.945 270.357 225.924 269.898z" fill="#dedede" data-fill-palette-color="accent"></path><path d="M212.479 260.986c0.006 0.071 0.012 0.142 0.018 0.213 0.476 5.383 3.625 9.543 7.441 9.543s6.965-4.16 7.441-9.543c0.006-0.071 0.012-0.142 0.018-0.213 0.035-0.233 0.056-0.47 0.071-0.71 0.009-0.164 0.016-0.328 0.016-0.495 0-0.409-0.03-0.813-0.086-1.205-0.551-3.814-3.68-6.737-7.459-6.737-3.778 0-6.907 2.923-7.459 6.737-0.056 0.393-0.086 0.796-0.086 1.205 0 0.166 0.006 0.331 0.016 0.495C212.423 260.515 212.445 260.752 212.479 260.986zM215.284 256.703c0 0 2.171 1.055 4.653 1.122 2.482-0.067 4.654-1.122 4.654-1.122 1.574 0.62 0.828 5.045 0.828 5.045 0.393-0.272 0.754-0.416 1.048-0.489-0.434 4.703-3.191 8.328-6.529 8.328-3.338 0-6.095-3.625-6.528-8.328 0.293 0.073 0.653 0.217 1.046 0.491C214.456 261.75 213.71 257.323 215.284 256.703z" fill="#dedede" data-fill-palette-color="accent"></path><path d="M272.417 260.986c0.006 0.071 0.012 0.142 0.018 0.212 0.476 5.384 3.626 9.544 7.441 9.544 3.814 0 6.965-4.16 7.44-9.544 0.007-0.07 0.013-0.141 0.019-0.212 0.033-0.234 0.057-0.47 0.07-0.71 0.009-0.164 0.016-0.329 0.016-0.496 0-0.409-0.029-0.812-0.086-1.204-0.552-3.815-3.682-6.737-7.459-6.737-3.778 0-6.907 2.922-7.459 6.737-0.057 0.393-0.086 0.795-0.086 1.204 0 0.167 0.007 0.332 0.016 0.496C272.361 260.515 272.383 260.751 272.417 260.986zM275.221 256.702c0 0 2.172 1.056 4.654 1.123 2.482-0.067 4.654-1.123 4.654-1.123 1.573 0.621 0.827 5.046 0.827 5.046 0.394-0.273 0.754-0.416 1.048-0.489-0.434 4.703-3.19 8.328-6.529 8.328s-6.096-3.625-6.528-8.328c0.293 0.073 0.653 0.216 1.047 0.49C274.394 261.749 273.648 257.323 275.221 256.702z" fill="#dedede" data-fill-palette-color="accent"></path><path d="M286.407 269.762c-0.017-0.003-0.035-0.003-0.052-0.006-0.139-0.02-0.278-0.036-0.42-0.049-0.001 0.016-0.004 0.029-0.004 0.043-0.004 0.041-0.01 0.082-0.015 0.123-0.026 0.234-0.096 0.461-0.205 0.68-0.733 1.846-3.106 5.346-4.504 7.332l-0.288-4.127c0.408-0.209 0.76-0.557 0.984-0.958 0.162-0.289 0.261-0.604 0.261-0.926 0 0-1.043 0.461-2.107 0.461-0.061 0-0.121-0.002-0.182-0.004-0.061 0.002-0.122 0.004-0.183 0.004-1.064 0-2.106-0.461-2.106-0.461 0 0.321 0.099 0.637 0.261 0.926 0.225 0.401 0.576 0.749 0.984 0.958l-0.288 4.127c-1.397-1.986-3.771-5.486-4.505-7.332-0.108-0.219-0.179-0.445-0.205-0.68-0.004-0.041-0.012-0.082-0.014-0.123 0-0.014-0.004-0.027-0.005-0.043-0.141 0.013-0.28 0.029-0.419 0.049-0.018 0.003-0.035 0.004-0.052 0.006-4.856 0.676-8.594 4.844-8.594 9.887 0 5.514 4.471 5.5 9.984 5.5h5.141 5.141c5.513 0 9.983 0.014 9.983-5.5C295 274.606 291.263 270.438 286.407 269.762z" fill="#dedede" data-fill-palette-color="accent"></path><path d="M255.985 232.911c-0.04 1.798-2.704 3.249-5.985 3.249-3.282 0-5.946-1.451-5.985-3.249-5.021 0.458-8.953 4.679-8.953 9.818 0 5.446 4.415 5.433 9.861 5.433h10.155c5.445 0 9.86 0.014 9.86-5.433C264.938 237.591 261.006 233.37 255.985 232.911z" fill="#dedede" data-fill-palette-color="accent"></path><path d="M242.541 223.999c0.005 0.07 0.012 0.141 0.018 0.212 0.476 5.384 3.625 9.543 7.441 9.543 3.814 0 6.965-4.159 7.44-9.543 0.007-0.071 0.013-0.142 0.019-0.212 0.033-0.234 0.057-0.471 0.069-0.71 0.01-0.164 0.017-0.329 0.017-0.495 0-0.409-0.03-0.812-0.086-1.205-0.552-3.815-3.682-6.737-7.459-6.737-3.778 0-6.907 2.923-7.459 6.737-0.057 0.393-0.086 0.796-0.086 1.205 0 0.167 0.006 0.331 0.015 0.495C242.485 223.529 242.507 223.765 242.541 223.999zM245.346 219.717c0 0 2.171 1.054 4.654 1.122 2.482-0.068 4.654-1.122 4.654-1.122 1.573 0.621 0.827 5.046 0.827 5.046 0.394-0.274 0.754-0.417 1.047-0.49-0.433 4.703-3.19 8.329-6.528 8.329-3.338 0-6.096-3.626-6.529-8.329 0.293 0.074 0.654 0.216 1.046 0.49C244.517 224.762 243.772 220.337 245.346 219.717z" fill="#dedede" data-fill-palette-color="accent"></path><polygon points="252.406,251.864 247.594,251.864 247.594,263.876 237.197,269.878 239.602,274.045 250,268.042 260.398,274.045    262.803,269.878 252.406,263.876  " fill="#dedede" data-fill-palette-color="accent"></polygon></g></svg></g></svg></g><g></g></svg></g></svg></g></svg></g></svg></g><defs></defs></svg><rect width="320" height="360" fill="none" stroke="none" visibility="hidden"></rect></g></svg></g></svg>